ISO-10303-21;
HEADER;
FILE_DESCRIPTION(('heatsink triangular faceted B-rep CAD model'),'2;1');
FILE_NAME('heatsink.step','2026-09-03T00:00:00',('fs-io'),('FrankenSim'),'fs-io','FrankenSim','');
FILE_SCHEMA(('CONFIG_CONTROL_DESIGN'));
ENDSEC;
DATA;
#1=CARTESIAN_POINT('',(0.000000,0.000000,0.000000));
#2=CARTESIAN_POINT('',(0.000000,0.060000,0.000000));
#3=CARTESIAN_POINT('',(0.008000,0.060000,0.000000));
#4=CARTESIAN_POINT('',(0.008000,0.000000,0.000000));
#5=CARTESIAN_POINT('',(0.000000,0.000000,0.005000));
#6=CARTESIAN_POINT('',(0.008000,0.000000,0.005000));
#7=CARTESIAN_POINT('',(0.008000,0.060000,0.005000));
#8=CARTESIAN_POINT('',(0.000000,0.060000,0.005000));
#9=CARTESIAN_POINT('',(0.014000,0.060000,0.000000));
#10=CARTESIAN_POINT('',(0.014000,0.000000,0.000000));
#11=CARTESIAN_POINT('',(0.008000,0.000000,0.025000));
#12=CARTESIAN_POINT('',(0.014000,0.000000,0.025000));
#13=CARTESIAN_POINT('',(0.014000,0.060000,0.025000));
#14=CARTESIAN_POINT('',(0.008000,0.060000,0.025000));
#15=CARTESIAN_POINT('',(0.014000,0.000000,0.005000));
#16=CARTESIAN_POINT('',(0.014000,0.060000,0.005000));
#17=CARTESIAN_POINT('',(0.026000,0.060000,0.000000));
#18=CARTESIAN_POINT('',(0.026000,0.000000,0.000000));
#19=CARTESIAN_POINT('',(0.026000,0.000000,0.005000));
#20=CARTESIAN_POINT('',(0.026000,0.060000,0.005000));
#21=CARTESIAN_POINT('',(0.032000,0.060000,0.000000));
#22=CARTESIAN_POINT('',(0.032000,0.000000,0.000000));
#23=CARTESIAN_POINT('',(0.026000,0.000000,0.025000));
#24=CARTESIAN_POINT('',(0.032000,0.000000,0.025000));
#25=CARTESIAN_POINT('',(0.032000,0.060000,0.025000));
#26=CARTESIAN_POINT('',(0.026000,0.060000,0.025000));
#27=CARTESIAN_POINT('',(0.032000,0.000000,0.005000));
#28=CARTESIAN_POINT('',(0.032000,0.060000,0.005000));
#29=CARTESIAN_POINT('',(0.044000,0.060000,0.000000));
#30=CARTESIAN_POINT('',(0.044000,0.000000,0.000000));
#31=CARTESIAN_POINT('',(0.044000,0.000000,0.005000));
#32=CARTESIAN_POINT('',(0.044000,0.060000,0.005000));
#33=CARTESIAN_POINT('',(0.050000,0.060000,0.000000));
#34=CARTESIAN_POINT('',(0.050000,0.000000,0.000000));
#35=CARTESIAN_POINT('',(0.044000,0.000000,0.025000));
#36=CARTESIAN_POINT('',(0.050000,0.000000,0.025000));
#37=CARTESIAN_POINT('',(0.050000,0.060000,0.025000));
#38=CARTESIAN_POINT('',(0.044000,0.060000,0.025000));
#39=CARTESIAN_POINT('',(0.050000,0.000000,0.005000));
#40=CARTESIAN_POINT('',(0.050000,0.060000,0.005000));
#41=CARTESIAN_POINT('',(0.062000,0.060000,0.000000));
#42=CARTESIAN_POINT('',(0.062000,0.000000,0.000000));
#43=CARTESIAN_POINT('',(0.062000,0.000000,0.005000));
#44=CARTESIAN_POINT('',(0.062000,0.060000,0.005000));
#45=CARTESIAN_POINT('',(0.068000,0.060000,0.000000));
#46=CARTESIAN_POINT('',(0.068000,0.000000,0.000000));
#47=CARTESIAN_POINT('',(0.062000,0.000000,0.025000));
#48=CARTESIAN_POINT('',(0.068000,0.000000,0.025000));
#49=CARTESIAN_POINT('',(0.068000,0.060000,0.025000));
#50=CARTESIAN_POINT('',(0.062000,0.060000,0.025000));
#51=CARTESIAN_POINT('',(0.068000,0.000000,0.005000));
#52=CARTESIAN_POINT('',(0.068000,0.060000,0.005000));
#53=CARTESIAN_POINT('',(0.080000,0.060000,0.000000));
#54=CARTESIAN_POINT('',(0.080000,0.000000,0.000000));
#55=CARTESIAN_POINT('',(0.080000,0.000000,0.005000));
#56=CARTESIAN_POINT('',(0.080000,0.060000,0.005000));
#1000=POLY_LOOP('',(#1,#2,#3));
#2000=FACE_OUTER_BOUND('',#1000,.T.);
#3000=FACE('',(#2000));
#1001=POLY_LOOP('',(#1,#3,#4));
#2001=FACE_OUTER_BOUND('',#1001,.T.);
#3001=FACE('',(#2001));
#1002=POLY_LOOP('',(#5,#6,#7));
#2002=FACE_OUTER_BOUND('',#1002,.T.);
#3002=FACE('',(#2002));
#1003=POLY_LOOP('',(#5,#7,#8));
#2003=FACE_OUTER_BOUND('',#1003,.T.);
#3003=FACE('',(#2003));
#1004=POLY_LOOP('',(#1,#4,#6));
#2004=FACE_OUTER_BOUND('',#1004,.T.);
#3004=FACE('',(#2004));
#1005=POLY_LOOP('',(#1,#6,#5));
#2005=FACE_OUTER_BOUND('',#1005,.T.);
#3005=FACE('',(#2005));
#1006=POLY_LOOP('',(#2,#8,#7));
#2006=FACE_OUTER_BOUND('',#1006,.T.);
#3006=FACE('',(#2006));
#1007=POLY_LOOP('',(#2,#7,#3));
#2007=FACE_OUTER_BOUND('',#1007,.T.);
#3007=FACE('',(#2007));
#1008=POLY_LOOP('',(#4,#3,#9));
#2008=FACE_OUTER_BOUND('',#1008,.T.);
#3008=FACE('',(#2008));
#1009=POLY_LOOP('',(#4,#9,#10));
#2009=FACE_OUTER_BOUND('',#1009,.T.);
#3009=FACE('',(#2009));
#1010=POLY_LOOP('',(#11,#12,#13));
#2010=FACE_OUTER_BOUND('',#1010,.T.);
#3010=FACE('',(#2010));
#1011=POLY_LOOP('',(#11,#13,#14));
#2011=FACE_OUTER_BOUND('',#1011,.T.);
#3011=FACE('',(#2011));
#1012=POLY_LOOP('',(#4,#10,#15));
#2012=FACE_OUTER_BOUND('',#1012,.T.);
#3012=FACE('',(#2012));
#1013=POLY_LOOP('',(#4,#15,#6));
#2013=FACE_OUTER_BOUND('',#1013,.T.);
#3013=FACE('',(#2013));
#1014=POLY_LOOP('',(#6,#15,#12));
#2014=FACE_OUTER_BOUND('',#1014,.T.);
#3014=FACE('',(#2014));
#1015=POLY_LOOP('',(#6,#12,#11));
#2015=FACE_OUTER_BOUND('',#1015,.T.);
#3015=FACE('',(#2015));
#1016=POLY_LOOP('',(#3,#7,#16));
#2016=FACE_OUTER_BOUND('',#1016,.T.);
#3016=FACE('',(#2016));
#1017=POLY_LOOP('',(#3,#16,#9));
#2017=FACE_OUTER_BOUND('',#1017,.T.);
#3017=FACE('',(#2017));
#1018=POLY_LOOP('',(#7,#14,#13));
#2018=FACE_OUTER_BOUND('',#1018,.T.);
#3018=FACE('',(#2018));
#1019=POLY_LOOP('',(#7,#13,#16));
#2019=FACE_OUTER_BOUND('',#1019,.T.);
#3019=FACE('',(#2019));
#1020=POLY_LOOP('',(#6,#11,#14));
#2020=FACE_OUTER_BOUND('',#1020,.T.);
#3020=FACE('',(#2020));
#1021=POLY_LOOP('',(#6,#14,#7));
#2021=FACE_OUTER_BOUND('',#1021,.T.);
#3021=FACE('',(#2021));
#1022=POLY_LOOP('',(#15,#16,#13));
#2022=FACE_OUTER_BOUND('',#1022,.T.);
#3022=FACE('',(#2022));
#1023=POLY_LOOP('',(#15,#13,#12));
#2023=FACE_OUTER_BOUND('',#1023,.T.);
#3023=FACE('',(#2023));
#1024=POLY_LOOP('',(#10,#9,#17));
#2024=FACE_OUTER_BOUND('',#1024,.T.);
#3024=FACE('',(#2024));
#1025=POLY_LOOP('',(#10,#17,#18));
#2025=FACE_OUTER_BOUND('',#1025,.T.);
#3025=FACE('',(#2025));
#1026=POLY_LOOP('',(#15,#19,#20));
#2026=FACE_OUTER_BOUND('',#1026,.T.);
#3026=FACE('',(#2026));
#1027=POLY_LOOP('',(#15,#20,#16));
#2027=FACE_OUTER_BOUND('',#1027,.T.);
#3027=FACE('',(#2027));
#1028=POLY_LOOP('',(#10,#18,#19));
#2028=FACE_OUTER_BOUND('',#1028,.T.);
#3028=FACE('',(#2028));
#1029=POLY_LOOP('',(#10,#19,#15));
#2029=FACE_OUTER_BOUND('',#1029,.T.);
#3029=FACE('',(#2029));
#1030=POLY_LOOP('',(#9,#16,#20));
#2030=FACE_OUTER_BOUND('',#1030,.T.);
#3030=FACE('',(#2030));
#1031=POLY_LOOP('',(#9,#20,#17));
#2031=FACE_OUTER_BOUND('',#1031,.T.);
#3031=FACE('',(#2031));
#1032=POLY_LOOP('',(#18,#17,#21));
#2032=FACE_OUTER_BOUND('',#1032,.T.);
#3032=FACE('',(#2032));
#1033=POLY_LOOP('',(#18,#21,#22));
#2033=FACE_OUTER_BOUND('',#1033,.T.);
#3033=FACE('',(#2033));
#1034=POLY_LOOP('',(#23,#24,#25));
#2034=FACE_OUTER_BOUND('',#1034,.T.);
#3034=FACE('',(#2034));
#1035=POLY_LOOP('',(#23,#25,#26));
#2035=FACE_OUTER_BOUND('',#1035,.T.);
#3035=FACE('',(#2035));
#1036=POLY_LOOP('',(#18,#22,#27));
#2036=FACE_OUTER_BOUND('',#1036,.T.);
#3036=FACE('',(#2036));
#1037=POLY_LOOP('',(#18,#27,#19));
#2037=FACE_OUTER_BOUND('',#1037,.T.);
#3037=FACE('',(#2037));
#1038=POLY_LOOP('',(#19,#27,#24));
#2038=FACE_OUTER_BOUND('',#1038,.T.);
#3038=FACE('',(#2038));
#1039=POLY_LOOP('',(#19,#24,#23));
#2039=FACE_OUTER_BOUND('',#1039,.T.);
#3039=FACE('',(#2039));
#1040=POLY_LOOP('',(#17,#20,#28));
#2040=FACE_OUTER_BOUND('',#1040,.T.);
#3040=FACE('',(#2040));
#1041=POLY_LOOP('',(#17,#28,#21));
#2041=FACE_OUTER_BOUND('',#1041,.T.);
#3041=FACE('',(#2041));
#1042=POLY_LOOP('',(#20,#26,#25));
#2042=FACE_OUTER_BOUND('',#1042,.T.);
#3042=FACE('',(#2042));
#1043=POLY_LOOP('',(#20,#25,#28));
#2043=FACE_OUTER_BOUND('',#1043,.T.);
#3043=FACE('',(#2043));
#1044=POLY_LOOP('',(#19,#23,#26));
#2044=FACE_OUTER_BOUND('',#1044,.T.);
#3044=FACE('',(#2044));
#1045=POLY_LOOP('',(#19,#26,#20));
#2045=FACE_OUTER_BOUND('',#1045,.T.);
#3045=FACE('',(#2045));
#1046=POLY_LOOP('',(#27,#28,#25));
#2046=FACE_OUTER_BOUND('',#1046,.T.);
#3046=FACE('',(#2046));
#1047=POLY_LOOP('',(#27,#25,#24));
#2047=FACE_OUTER_BOUND('',#1047,.T.);
#3047=FACE('',(#2047));
#1048=POLY_LOOP('',(#22,#21,#29));
#2048=FACE_OUTER_BOUND('',#1048,.T.);
#3048=FACE('',(#2048));
#1049=POLY_LOOP('',(#22,#29,#30));
#2049=FACE_OUTER_BOUND('',#1049,.T.);
#3049=FACE('',(#2049));
#1050=POLY_LOOP('',(#27,#31,#32));
#2050=FACE_OUTER_BOUND('',#1050,.T.);
#3050=FACE('',(#2050));
#1051=POLY_LOOP('',(#27,#32,#28));
#2051=FACE_OUTER_BOUND('',#1051,.T.);
#3051=FACE('',(#2051));
#1052=POLY_LOOP('',(#22,#30,#31));
#2052=FACE_OUTER_BOUND('',#1052,.T.);
#3052=FACE('',(#2052));
#1053=POLY_LOOP('',(#22,#31,#27));
#2053=FACE_OUTER_BOUND('',#1053,.T.);
#3053=FACE('',(#2053));
#1054=POLY_LOOP('',(#21,#28,#32));
#2054=FACE_OUTER_BOUND('',#1054,.T.);
#3054=FACE('',(#2054));
#1055=POLY_LOOP('',(#21,#32,#29));
#2055=FACE_OUTER_BOUND('',#1055,.T.);
#3055=FACE('',(#2055));
#1056=POLY_LOOP('',(#30,#29,#33));
#2056=FACE_OUTER_BOUND('',#1056,.T.);
#3056=FACE('',(#2056));
#1057=POLY_LOOP('',(#30,#33,#34));
#2057=FACE_OUTER_BOUND('',#1057,.T.);
#3057=FACE('',(#2057));
#1058=POLY_LOOP('',(#35,#36,#37));
#2058=FACE_OUTER_BOUND('',#1058,.T.);
#3058=FACE('',(#2058));
#1059=POLY_LOOP('',(#35,#37,#38));
#2059=FACE_OUTER_BOUND('',#1059,.T.);
#3059=FACE('',(#2059));
#1060=POLY_LOOP('',(#30,#34,#39));
#2060=FACE_OUTER_BOUND('',#1060,.T.);
#3060=FACE('',(#2060));
#1061=POLY_LOOP('',(#30,#39,#31));
#2061=FACE_OUTER_BOUND('',#1061,.T.);
#3061=FACE('',(#2061));
#1062=POLY_LOOP('',(#31,#39,#36));
#2062=FACE_OUTER_BOUND('',#1062,.T.);
#3062=FACE('',(#2062));
#1063=POLY_LOOP('',(#31,#36,#35));
#2063=FACE_OUTER_BOUND('',#1063,.T.);
#3063=FACE('',(#2063));
#1064=POLY_LOOP('',(#29,#32,#40));
#2064=FACE_OUTER_BOUND('',#1064,.T.);
#3064=FACE('',(#2064));
#1065=POLY_LOOP('',(#29,#40,#33));
#2065=FACE_OUTER_BOUND('',#1065,.T.);
#3065=FACE('',(#2065));
#1066=POLY_LOOP('',(#32,#38,#37));
#2066=FACE_OUTER_BOUND('',#1066,.T.);
#3066=FACE('',(#2066));
#1067=POLY_LOOP('',(#32,#37,#40));
#2067=FACE_OUTER_BOUND('',#1067,.T.);
#3067=FACE('',(#2067));
#1068=POLY_LOOP('',(#31,#35,#38));
#2068=FACE_OUTER_BOUND('',#1068,.T.);
#3068=FACE('',(#2068));
#1069=POLY_LOOP('',(#31,#38,#32));
#2069=FACE_OUTER_BOUND('',#1069,.T.);
#3069=FACE('',(#2069));
#1070=POLY_LOOP('',(#39,#40,#37));
#2070=FACE_OUTER_BOUND('',#1070,.T.);
#3070=FACE('',(#2070));
#1071=POLY_LOOP('',(#39,#37,#36));
#2071=FACE_OUTER_BOUND('',#1071,.T.);
#3071=FACE('',(#2071));
#1072=POLY_LOOP('',(#34,#33,#41));
#2072=FACE_OUTER_BOUND('',#1072,.T.);
#3072=FACE('',(#2072));
#1073=POLY_LOOP('',(#34,#41,#42));
#2073=FACE_OUTER_BOUND('',#1073,.T.);
#3073=FACE('',(#2073));
#1074=POLY_LOOP('',(#39,#43,#44));
#2074=FACE_OUTER_BOUND('',#1074,.T.);
#3074=FACE('',(#2074));
#1075=POLY_LOOP('',(#39,#44,#40));
#2075=FACE_OUTER_BOUND('',#1075,.T.);
#3075=FACE('',(#2075));
#1076=POLY_LOOP('',(#34,#42,#43));
#2076=FACE_OUTER_BOUND('',#1076,.T.);
#3076=FACE('',(#2076));
#1077=POLY_LOOP('',(#34,#43,#39));
#2077=FACE_OUTER_BOUND('',#1077,.T.);
#3077=FACE('',(#2077));
#1078=POLY_LOOP('',(#33,#40,#44));
#2078=FACE_OUTER_BOUND('',#1078,.T.);
#3078=FACE('',(#2078));
#1079=POLY_LOOP('',(#33,#44,#41));
#2079=FACE_OUTER_BOUND('',#1079,.T.);
#3079=FACE('',(#2079));
#1080=POLY_LOOP('',(#42,#41,#45));
#2080=FACE_OUTER_BOUND('',#1080,.T.);
#3080=FACE('',(#2080));
#1081=POLY_LOOP('',(#42,#45,#46));
#2081=FACE_OUTER_BOUND('',#1081,.T.);
#3081=FACE('',(#2081));
#1082=POLY_LOOP('',(#47,#48,#49));
#2082=FACE_OUTER_BOUND('',#1082,.T.);
#3082=FACE('',(#2082));
#1083=POLY_LOOP('',(#47,#49,#50));
#2083=FACE_OUTER_BOUND('',#1083,.T.);
#3083=FACE('',(#2083));
#1084=POLY_LOOP('',(#42,#46,#51));
#2084=FACE_OUTER_BOUND('',#1084,.T.);
#3084=FACE('',(#2084));
#1085=POLY_LOOP('',(#42,#51,#43));
#2085=FACE_OUTER_BOUND('',#1085,.T.);
#3085=FACE('',(#2085));
#1086=POLY_LOOP('',(#43,#51,#48));
#2086=FACE_OUTER_BOUND('',#1086,.T.);
#3086=FACE('',(#2086));
#1087=POLY_LOOP('',(#43,#48,#47));
#2087=FACE_OUTER_BOUND('',#1087,.T.);
#3087=FACE('',(#2087));
#1088=POLY_LOOP('',(#41,#44,#52));
#2088=FACE_OUTER_BOUND('',#1088,.T.);
#3088=FACE('',(#2088));
#1089=POLY_LOOP('',(#41,#52,#45));
#2089=FACE_OUTER_BOUND('',#1089,.T.);
#3089=FACE('',(#2089));
#1090=POLY_LOOP('',(#44,#50,#49));
#2090=FACE_OUTER_BOUND('',#1090,.T.);
#3090=FACE('',(#2090));
#1091=POLY_LOOP('',(#44,#49,#52));
#2091=FACE_OUTER_BOUND('',#1091,.T.);
#3091=FACE('',(#2091));
#1092=POLY_LOOP('',(#43,#47,#50));
#2092=FACE_OUTER_BOUND('',#1092,.T.);
#3092=FACE('',(#2092));
#1093=POLY_LOOP('',(#43,#50,#44));
#2093=FACE_OUTER_BOUND('',#1093,.T.);
#3093=FACE('',(#2093));
#1094=POLY_LOOP('',(#51,#52,#49));
#2094=FACE_OUTER_BOUND('',#1094,.T.);
#3094=FACE('',(#2094));
#1095=POLY_LOOP('',(#51,#49,#48));
#2095=FACE_OUTER_BOUND('',#1095,.T.);
#3095=FACE('',(#2095));
#1096=POLY_LOOP('',(#46,#45,#53));
#2096=FACE_OUTER_BOUND('',#1096,.T.);
#3096=FACE('',(#2096));
#1097=POLY_LOOP('',(#46,#53,#54));
#2097=FACE_OUTER_BOUND('',#1097,.T.);
#3097=FACE('',(#2097));
#1098=POLY_LOOP('',(#51,#55,#56));
#2098=FACE_OUTER_BOUND('',#1098,.T.);
#3098=FACE('',(#2098));
#1099=POLY_LOOP('',(#51,#56,#52));
#2099=FACE_OUTER_BOUND('',#1099,.T.);
#3099=FACE('',(#2099));
#1100=POLY_LOOP('',(#46,#54,#55));
#2100=FACE_OUTER_BOUND('',#1100,.T.);
#3100=FACE('',(#2100));
#1101=POLY_LOOP('',(#46,#55,#51));
#2101=FACE_OUTER_BOUND('',#1101,.T.);
#3101=FACE('',(#2101));
#1102=POLY_LOOP('',(#45,#52,#56));
#2102=FACE_OUTER_BOUND('',#1102,.T.);
#3102=FACE('',(#2102));
#1103=POLY_LOOP('',(#45,#56,#53));
#2103=FACE_OUTER_BOUND('',#1103,.T.);
#3103=FACE('',(#2103));
#1104=POLY_LOOP('',(#1,#5,#8));
#2104=FACE_OUTER_BOUND('',#1104,.T.);
#3104=FACE('',(#2104));
#1105=POLY_LOOP('',(#1,#8,#2));
#2105=FACE_OUTER_BOUND('',#1105,.T.);
#3105=FACE('',(#2105));
#1106=POLY_LOOP('',(#54,#53,#56));
#2106=FACE_OUTER_BOUND('',#1106,.T.);
#3106=FACE('',(#2106));
#1107=POLY_LOOP('',(#54,#56,#55));
#2107=FACE_OUTER_BOUND('',#1107,.T.);
#3107=FACE('',(#2107));
#5000=CLOSED_SHELL('',(#3000,#3001,#3002,#3003,#3004,#3005,#3006,#3007,#3008,#3009,#3010,#3011,#3012,#3013,#3014,#3015,#3016,#3017,#3018,#3019,#3020,#3021,#3022,#3023,#3024,#3025,#3026,#3027,#3028,#3029,#3030,#3031,#3032,#3033,#3034,#3035,#3036,#3037,#3038,#3039,#3040,#3041,#3042,#3043,#3044,#3045,#3046,#3047,#3048,#3049,#3050,#3051,#3052,#3053,#3054,#3055,#3056,#3057,#3058,#3059,#3060,#3061,#3062,#3063,#3064,#3065,#3066,#3067,#3068,#3069,#3070,#3071,#3072,#3073,#3074,#3075,#3076,#3077,#3078,#3079,#3080,#3081,#3082,#3083,#3084,#3085,#3086,#3087,#3088,#3089,#3090,#3091,#3092,#3093,#3094,#3095,#3096,#3097,#3098,#3099,#3100,#3101,#3102,#3103,#3104,#3105,#3106,#3107));
#5001=FACETED_BREP('',#5000);
ENDSEC;
END-ISO-10303-21;
