solid heatsink
  facet normal 0.0 0.35836794954530027 -0.9335804264972017
    outer loop
      vertex 0.1 0.2 0.05
      vertex 0.06558541381893725 0.2458846588924023 0.06761347030866122
      vertex 0.07213863017324917 0.2501684967650211 0.06925788159988222
    endloop
  endfacet
  facet normal 0.0 0.35836794954530027 -0.9335804264972017
    outer loop
      vertex 0.1 0.2 0.05
      vertex 0.07213863017324917 0.2501684967650211 0.06925788159988222
      vertex 0.10655321635431195 0.20428383787261883 0.051644411291221
    endloop
  endfacet
  facet normal 0.0 -0.35836794954530027 0.9335804264972017
    outer loop
      vertex 0.1 0.1982081602522735 0.05466790213248601
      vertex 0.10655321635431195 0.20249199812489235 0.05631231342370701
      vertex 0.07213863017324917 0.24837665701729464 0.07392578373236823
    endloop
  endfacet
  facet normal 0.0 -0.35836794954530027 0.9335804264972017
    outer loop
      vertex 0.1 0.1982081602522735 0.05466790213248601
      vertex 0.07213863017324917 0.24837665701729464 0.07392578373236823
      vertex 0.06558541381893725 0.24409281914467582 0.07228137244114723
    endloop
  endfacet
  facet normal 0.573576436351046 -0.7647443148733717 -0.29355783847768696
    outer loop
      vertex 0.1 0.2 0.05
      vertex 0.10655321635431195 0.20428383787261883 0.051644411291221
      vertex 0.10655321635431195 0.20249199812489235 0.05631231342370701
    endloop
  endfacet
  facet normal 0.573576436351046 -0.7647443148733717 -0.29355783847768696
    outer loop
      vertex 0.1 0.2 0.05
      vertex 0.10655321635431195 0.20249199812489235 0.05631231342370701
      vertex 0.1 0.1982081602522735 0.05466790213248601
    endloop
  endfacet
  facet normal -0.573576436351046 0.7647443148733717 0.29355783847768696
    outer loop
      vertex 0.06558541381893725 0.2458846588924023 0.06761347030866122
      vertex 0.06558541381893725 0.24409281914467582 0.07228137244114723
      vertex 0.07213863017324917 0.24837665701729464 0.07392578373236823
    endloop
  endfacet
  facet normal -0.573576436351046 0.7647443148733717 0.29355783847768696
    outer loop
      vertex 0.06558541381893725 0.2458846588924023 0.06761347030866122
      vertex 0.07213863017324917 0.24837665701729464 0.07392578373236823
      vertex 0.07213863017324917 0.2501684967650211 0.06925788159988222
    endloop
  endfacet
  facet normal 0.0 0.35836794954530027 -0.9335804264972017
    outer loop
      vertex 0.10655321635431195 0.20428383787261883 0.051644411291221
      vertex 0.07213863017324917 0.2501684967650211 0.06925788159988222
      vertex 0.07705354243898313 0.2533813751694853 0.07049119006829796
    endloop
  endfacet
  facet normal 0.0 0.35836794954530027 -0.9335804264972017
    outer loop
      vertex 0.10655321635431195 0.20428383787261883 0.051644411291221
      vertex 0.07705354243898313 0.2533813751694853 0.07049119006829796
      vertex 0.11146812862004589 0.20749671627708297 0.05287771975963675
    endloop
  endfacet
  facet normal 0.0 -0.35836794954530027 0.9335804264972017
    outer loop
      vertex 0.10655321635431195 0.19532463913398634 0.07498392195365104
      vertex 0.11146812862004589 0.19853751753845048 0.0762172304220668
      vertex 0.07705354243898313 0.24442217643085276 0.09383070073072801
    endloop
  endfacet
  facet normal 0.0 -0.35836794954530027 0.9335804264972017
    outer loop
      vertex 0.10655321635431195 0.19532463913398634 0.07498392195365104
      vertex 0.07705354243898313 0.24442217643085276 0.09383070073072801
      vertex 0.07213863017324917 0.24120929802638863 0.09259739226231226
    endloop
  endfacet
  facet normal 0.573576436351046 -0.7647443148733717 -0.29355783847768696
    outer loop
      vertex 0.10655321635431195 0.20428383787261883 0.051644411291221
      vertex 0.11146812862004589 0.20749671627708297 0.05287771975963675
      vertex 0.11146812862004589 0.20570487652935648 0.057545621892122756
    endloop
  endfacet
  facet normal 0.573576436351046 -0.7647443148733717 -0.29355783847768696
    outer loop
      vertex 0.10655321635431195 0.20428383787261883 0.051644411291221
      vertex 0.11146812862004589 0.20570487652935648 0.057545621892122756
      vertex 0.10655321635431195 0.20249199812489235 0.05631231342370701
    endloop
  endfacet
  facet normal 0.573576436351046 -0.7647443148733717 -0.29355783847768696
    outer loop
      vertex 0.10655321635431195 0.20249199812489235 0.05631231342370701
      vertex 0.11146812862004589 0.20570487652935648 0.057545621892122756
      vertex 0.11146812862004589 0.19853751753845048 0.0762172304220668
    endloop
  endfacet
  facet normal 0.573576436351046 -0.7647443148733717 -0.29355783847768696
    outer loop
      vertex 0.10655321635431195 0.20249199812489235 0.05631231342370701
      vertex 0.11146812862004589 0.19853751753845048 0.0762172304220668
      vertex 0.10655321635431195 0.19532463913398634 0.07498392195365104
    endloop
  endfacet
  facet normal -0.573576436351046 0.7647443148733717 0.29355783847768696
    outer loop
      vertex 0.07213863017324917 0.2501684967650211 0.06925788159988222
      vertex 0.07213863017324917 0.24837665701729464 0.07392578373236823
      vertex 0.07705354243898313 0.25158953542175877 0.07515909220078398
    endloop
  endfacet
  facet normal -0.573576436351046 0.7647443148733717 0.29355783847768696
    outer loop
      vertex 0.07213863017324917 0.2501684967650211 0.06925788159988222
      vertex 0.07705354243898313 0.25158953542175877 0.07515909220078398
      vertex 0.07705354243898313 0.2533813751694853 0.07049119006829796
    endloop
  endfacet
  facet normal -0.573576436351046 0.7647443148733717 0.29355783847768696
    outer loop
      vertex 0.07213863017324917 0.24837665701729464 0.07392578373236823
      vertex 0.07213863017324917 0.24120929802638863 0.09259739226231226
      vertex 0.07705354243898313 0.24442217643085276 0.09383070073072801
    endloop
  endfacet
  facet normal -0.573576436351046 0.7647443148733717 0.29355783847768696
    outer loop
      vertex 0.07213863017324917 0.24837665701729464 0.07392578373236823
      vertex 0.07705354243898313 0.24442217643085276 0.09383070073072801
      vertex 0.07705354243898313 0.25158953542175877 0.07515909220078398
    endloop
  endfacet
  facet normal -0.8191520442889918 -0.5354797340773546 -0.2055514114026248
    outer loop
      vertex 0.10655321635431195 0.20249199812489235 0.05631231342370701
      vertex 0.10655321635431195 0.19532463913398634 0.07498392195365104
      vertex 0.07213863017324917 0.24120929802638863 0.09259739226231226
    endloop
  endfacet
  facet normal -0.8191520442889918 -0.5354797340773546 -0.2055514114026248
    outer loop
      vertex 0.10655321635431195 0.20249199812489235 0.05631231342370701
      vertex 0.07213863017324917 0.24120929802638863 0.09259739226231226
      vertex 0.07213863017324917 0.24837665701729464 0.07392578373236823
    endloop
  endfacet
  facet normal 0.8191520442889918 0.5354797340773546 0.2055514114026248
    outer loop
      vertex 0.11146812862004589 0.20570487652935648 0.057545621892122756
      vertex 0.07705354243898313 0.25158953542175877 0.07515909220078398
      vertex 0.07705354243898313 0.24442217643085276 0.09383070073072801
    endloop
  endfacet
  facet normal 0.8191520442889918 0.5354797340773546 0.2055514114026248
    outer loop
      vertex 0.11146812862004589 0.20570487652935648 0.057545621892122756
      vertex 0.07705354243898313 0.24442217643085276 0.09383070073072801
      vertex 0.11146812862004589 0.19853751753845048 0.0762172304220668
    endloop
  endfacet
  facet normal 0.0 0.35836794954530027 -0.9335804264972017
    outer loop
      vertex 0.11146812862004589 0.20749671627708297 0.05287771975963675
      vertex 0.07705354243898313 0.2533813751694853 0.07049119006829796
      vertex 0.08688336697045103 0.25980713197841354 0.07295780700512947
    endloop
  endfacet
  facet normal 0.0 0.35836794954530027 -0.9335804264972017
    outer loop
      vertex 0.11146812862004589 0.20749671627708297 0.05287771975963675
      vertex 0.08688336697045103 0.25980713197841354 0.07295780700512947
      vertex 0.12129795315151379 0.21392247308601123 0.055344336696468245
    endloop
  endfacet
  facet normal 0.0 -0.35836794954530027 0.9335804264972017
    outer loop
      vertex 0.11146812862004589 0.20570487652935648 0.057545621892122756
      vertex 0.12129795315151379 0.21213063333828472 0.060012238828954255
      vertex 0.08688336697045103 0.25801529223068703 0.07762570913761548
    endloop
  endfacet
  facet normal 0.0 -0.35836794954530027 0.9335804264972017
    outer loop
      vertex 0.11146812862004589 0.20570487652935648 0.057545621892122756
      vertex 0.08688336697045103 0.25801529223068703 0.07762570913761548
      vertex 0.07705354243898313 0.25158953542175877 0.07515909220078398
    endloop
  endfacet
  facet normal 0.573576436351046 -0.7647443148733717 -0.29355783847768696
    outer loop
      vertex 0.11146812862004589 0.20749671627708297 0.05287771975963675
      vertex 0.12129795315151379 0.21392247308601123 0.055344336696468245
      vertex 0.12129795315151379 0.21213063333828472 0.060012238828954255
    endloop
  endfacet
  facet normal 0.573576436351046 -0.7647443148733717 -0.29355783847768696
    outer loop
      vertex 0.11146812862004589 0.20749671627708297 0.05287771975963675
      vertex 0.12129795315151379 0.21213063333828472 0.060012238828954255
      vertex 0.11146812862004589 0.20570487652935648 0.057545621892122756
    endloop
  endfacet
  facet normal -0.573576436351046 0.7647443148733717 0.29355783847768696
    outer loop
      vertex 0.07705354243898313 0.2533813751694853 0.07049119006829796
      vertex 0.07705354243898313 0.25158953542175877 0.07515909220078398
      vertex 0.08688336697045103 0.25801529223068703 0.07762570913761548
    endloop
  endfacet
  facet normal -0.573576436351046 0.7647443148733717 0.29355783847768696
    outer loop
      vertex 0.07705354243898313 0.2533813751694853 0.07049119006829796
      vertex 0.08688336697045103 0.25801529223068703 0.07762570913761548
      vertex 0.08688336697045103 0.25980713197841354 0.07295780700512947
    endloop
  endfacet
  facet normal 0.0 0.35836794954530027 -0.9335804264972017
    outer loop
      vertex 0.12129795315151379 0.21392247308601123 0.055344336696468245
      vertex 0.08688336697045103 0.25980713197841354 0.07295780700512947
      vertex 0.09179827923618498 0.26302001038287764 0.07419111547354522
    endloop
  endfacet
  facet normal 0.0 0.35836794954530027 -0.9335804264972017
    outer loop
      vertex 0.12129795315151379 0.21392247308601123 0.055344336696468245
      vertex 0.09179827923618498 0.26302001038287764 0.07419111547354522
      vertex 0.12621286541724774 0.21713535149047536 0.056577645164884
    endloop
  endfacet
  facet normal 0.0 -0.35836794954530027 0.9335804264972017
    outer loop
      vertex 0.12129795315151379 0.2049632743473787 0.0786838473588983
      vertex 0.12621286541724774 0.20817615275184284 0.07991715582731404
      vertex 0.09179827923618498 0.25406081164424515 0.09753062613597527
    endloop
  endfacet
  facet normal 0.0 -0.35836794954530027 0.9335804264972017
    outer loop
      vertex 0.12129795315151379 0.2049632743473787 0.0786838473588983
      vertex 0.09179827923618498 0.25406081164424515 0.09753062613597527
      vertex 0.08688336697045103 0.25084793323978105 0.09629731766755951
    endloop
  endfacet
  facet normal 0.573576436351046 -0.7647443148733717 -0.29355783847768696
    outer loop
      vertex 0.12129795315151379 0.21392247308601123 0.055344336696468245
      vertex 0.12621286541724774 0.21713535149047536 0.056577645164884
      vertex 0.12621286541724774 0.21534351174274885 0.06124554729737
    endloop
  endfacet
  facet normal 0.573576436351046 -0.7647443148733717 -0.29355783847768696
    outer loop
      vertex 0.12129795315151379 0.21392247308601123 0.055344336696468245
      vertex 0.12621286541724774 0.21534351174274885 0.06124554729737
      vertex 0.12129795315151379 0.21213063333828472 0.060012238828954255
    endloop
  endfacet
  facet normal 0.573576436351046 -0.7647443148733717 -0.29355783847768696
    outer loop
      vertex 0.12129795315151379 0.21213063333828472 0.060012238828954255
      vertex 0.12621286541724774 0.21534351174274885 0.06124554729737
      vertex 0.12621286541724774 0.20817615275184284 0.07991715582731404
    endloop
  endfacet
  facet normal 0.573576436351046 -0.7647443148733717 -0.29355783847768696
    outer loop
      vertex 0.12129795315151379 0.21213063333828472 0.060012238828954255
      vertex 0.12621286541724774 0.20817615275184284 0.07991715582731404
      vertex 0.12129795315151379 0.2049632743473787 0.0786838473588983
    endloop
  endfacet
  facet normal -0.573576436351046 0.7647443148733717 0.29355783847768696
    outer loop
      vertex 0.08688336697045103 0.25980713197841354 0.07295780700512947
      vertex 0.08688336697045103 0.25801529223068703 0.07762570913761548
      vertex 0.09179827923618498 0.26122817063515114 0.07885901760603123
    endloop
  endfacet
  facet normal -0.573576436351046 0.7647443148733717 0.29355783847768696
    outer loop
      vertex 0.08688336697045103 0.25980713197841354 0.07295780700512947
      vertex 0.09179827923618498 0.26122817063515114 0.07885901760603123
      vertex 0.09179827923618498 0.26302001038287764 0.07419111547354522
    endloop
  endfacet
  facet normal -0.573576436351046 0.7647443148733717 0.29355783847768696
    outer loop
      vertex 0.08688336697045103 0.25801529223068703 0.07762570913761548
      vertex 0.08688336697045103 0.25084793323978105 0.09629731766755951
      vertex 0.09179827923618498 0.25406081164424515 0.09753062613597527
    endloop
  endfacet
  facet normal -0.573576436351046 0.7647443148733717 0.29355783847768696
    outer loop
      vertex 0.08688336697045103 0.25801529223068703 0.07762570913761548
      vertex 0.09179827923618498 0.25406081164424515 0.09753062613597527
      vertex 0.09179827923618498 0.26122817063515114 0.07885901760603123
    endloop
  endfacet
  facet normal -0.8191520442889918 -0.5354797340773546 -0.2055514114026248
    outer loop
      vertex 0.12129795315151379 0.21213063333828472 0.060012238828954255
      vertex 0.12129795315151379 0.2049632743473787 0.0786838473588983
      vertex 0.08688336697045103 0.25084793323978105 0.09629731766755951
    endloop
  endfacet
  facet normal -0.8191520442889918 -0.5354797340773546 -0.2055514114026248
    outer loop
      vertex 0.12129795315151379 0.21213063333828472 0.060012238828954255
      vertex 0.08688336697045103 0.25084793323978105 0.09629731766755951
      vertex 0.08688336697045103 0.25801529223068703 0.07762570913761548
    endloop
  endfacet
  facet normal 0.8191520442889918 0.5354797340773546 0.2055514114026248
    outer loop
      vertex 0.12621286541724774 0.21534351174274885 0.06124554729737
      vertex 0.09179827923618498 0.26122817063515114 0.07885901760603123
      vertex 0.09179827923618498 0.25406081164424515 0.09753062613597527
    endloop
  endfacet
  facet normal 0.8191520442889918 0.5354797340773546 0.2055514114026248
    outer loop
      vertex 0.12621286541724774 0.21534351174274885 0.06124554729737
      vertex 0.09179827923618498 0.25406081164424515 0.09753062613597527
      vertex 0.12621286541724774 0.20817615275184284 0.07991715582731404
    endloop
  endfacet
  facet normal 0.0 0.35836794954530027 -0.9335804264972017
    outer loop
      vertex 0.12621286541724774 0.21713535149047536 0.056577645164884
      vertex 0.09179827923618498 0.26302001038287764 0.07419111547354522
      vertex 0.10162810376765288 0.2694457671918059 0.07665773241037671
    endloop
  endfacet
  facet normal 0.0 0.35836794954530027 -0.9335804264972017
    outer loop
      vertex 0.12621286541724774 0.21713535149047536 0.056577645164884
      vertex 0.10162810376765288 0.2694457671918059 0.07665773241037671
      vertex 0.13604268994871566 0.22356110829940362 0.0590442621017155
    endloop
  endfacet
  facet normal 0.0 -0.35836794954530027 0.9335804264972017
    outer loop
      vertex 0.12621286541724774 0.21534351174274885 0.06124554729737
      vertex 0.13604268994871566 0.2217692685516771 0.06371216423420151
      vertex 0.10162810376765288 0.26765392744407945 0.08132563454286272
    endloop
  endfacet
  facet normal 0.0 -0.35836794954530027 0.9335804264972017
    outer loop
      vertex 0.12621286541724774 0.21534351174274885 0.06124554729737
      vertex 0.10162810376765288 0.26765392744407945 0.08132563454286272
      vertex 0.09179827923618498 0.26122817063515114 0.07885901760603123
    endloop
  endfacet
  facet normal 0.573576436351046 -0.7647443148733717 -0.29355783847768696
    outer loop
      vertex 0.12621286541724774 0.21713535149047536 0.056577645164884
      vertex 0.13604268994871566 0.22356110829940362 0.0590442621017155
      vertex 0.13604268994871566 0.2217692685516771 0.06371216423420151
    endloop
  endfacet
  facet normal 0.573576436351046 -0.7647443148733717 -0.29355783847768696
    outer loop
      vertex 0.12621286541724774 0.21713535149047536 0.056577645164884
      vertex 0.13604268994871566 0.2217692685516771 0.06371216423420151
      vertex 0.12621286541724774 0.21534351174274885 0.06124554729737
    endloop
  endfacet
  facet normal -0.573576436351046 0.7647443148733717 0.29355783847768696
    outer loop
      vertex 0.09179827923618498 0.26302001038287764 0.07419111547354522
      vertex 0.09179827923618498 0.26122817063515114 0.07885901760603123
      vertex 0.10162810376765288 0.26765392744407945 0.08132563454286272
    endloop
  endfacet
  facet normal -0.573576436351046 0.7647443148733717 0.29355783847768696
    outer loop
      vertex 0.09179827923618498 0.26302001038287764 0.07419111547354522
      vertex 0.10162810376765288 0.26765392744407945 0.08132563454286272
      vertex 0.10162810376765288 0.2694457671918059 0.07665773241037671
    endloop
  endfacet
  facet normal 0.0 0.35836794954530027 -0.9335804264972017
    outer loop
      vertex 0.13604268994871566 0.22356110829940362 0.0590442621017155
      vertex 0.10162810376765288 0.2694457671918059 0.07665773241037671
      vertex 0.10654301603338684 0.27265864559627007 0.07789104087879246
    endloop
  endfacet
  facet normal 0.0 0.35836794954530027 -0.9335804264972017
    outer loop
      vertex 0.13604268994871566 0.22356110829940362 0.0590442621017155
      vertex 0.10654301603338684 0.27265864559627007 0.07789104087879246
      vertex 0.14095760221444958 0.22677398670386775 0.06027757057013124
    endloop
  endfacet
  facet normal 0.0 -0.35836794954530027 0.9335804264972017
    outer loop
      vertex 0.13604268994871566 0.2146019095607711 0.08238377276414555
      vertex 0.14095760221444958 0.21781478796523523 0.08361708123256129
      vertex 0.10654301603338684 0.2636994468576375 0.10123055154122251
    endloop
  endfacet
  facet normal 0.0 -0.35836794954530027 0.9335804264972017
    outer loop
      vertex 0.13604268994871566 0.2146019095607711 0.08238377276414555
      vertex 0.10654301603338684 0.2636994468576375 0.10123055154122251
      vertex 0.10162810376765288 0.2604865684531734 0.09999724307280676
    endloop
  endfacet
  facet normal 0.573576436351046 -0.7647443148733717 -0.29355783847768696
    outer loop
      vertex 0.13604268994871566 0.22356110829940362 0.0590442621017155
      vertex 0.14095760221444958 0.22677398670386775 0.06027757057013124
      vertex 0.14095760221444958 0.22498214695614124 0.06494547270261725
    endloop
  endfacet
  facet normal 0.573576436351046 -0.7647443148733717 -0.29355783847768696
    outer loop
      vertex 0.13604268994871566 0.22356110829940362 0.0590442621017155
      vertex 0.14095760221444958 0.22498214695614124 0.06494547270261725
      vertex 0.13604268994871566 0.2217692685516771 0.06371216423420151
    endloop
  endfacet
  facet normal 0.573576436351046 -0.7647443148733717 -0.29355783847768696
    outer loop
      vertex 0.13604268994871566 0.2217692685516771 0.06371216423420151
      vertex 0.14095760221444958 0.22498214695614124 0.06494547270261725
      vertex 0.14095760221444958 0.21781478796523523 0.08361708123256129
    endloop
  endfacet
  facet normal 0.573576436351046 -0.7647443148733717 -0.29355783847768696
    outer loop
      vertex 0.13604268994871566 0.2217692685516771 0.06371216423420151
      vertex 0.14095760221444958 0.21781478796523523 0.08361708123256129
      vertex 0.13604268994871566 0.2146019095607711 0.08238377276414555
    endloop
  endfacet
  facet normal -0.573576436351046 0.7647443148733717 0.29355783847768696
    outer loop
      vertex 0.10162810376765288 0.2694457671918059 0.07665773241037671
      vertex 0.10162810376765288 0.26765392744407945 0.08132563454286272
      vertex 0.10654301603338684 0.27086680584854356 0.08255894301127847
    endloop
  endfacet
  facet normal -0.573576436351046 0.7647443148733717 0.29355783847768696
    outer loop
      vertex 0.10162810376765288 0.2694457671918059 0.07665773241037671
      vertex 0.10654301603338684 0.27086680584854356 0.08255894301127847
      vertex 0.10654301603338684 0.27265864559627007 0.07789104087879246
    endloop
  endfacet
  facet normal -0.573576436351046 0.7647443148733717 0.29355783847768696
    outer loop
      vertex 0.10162810376765288 0.26765392744407945 0.08132563454286272
      vertex 0.10162810376765288 0.2604865684531734 0.09999724307280676
      vertex 0.10654301603338684 0.2636994468576375 0.10123055154122251
    endloop
  endfacet
  facet normal -0.573576436351046 0.7647443148733717 0.29355783847768696
    outer loop
      vertex 0.10162810376765288 0.26765392744407945 0.08132563454286272
      vertex 0.10654301603338684 0.2636994468576375 0.10123055154122251
      vertex 0.10654301603338684 0.27086680584854356 0.08255894301127847
    endloop
  endfacet
  facet normal -0.8191520442889918 -0.5354797340773546 -0.2055514114026248
    outer loop
      vertex 0.13604268994871566 0.2217692685516771 0.06371216423420151
      vertex 0.13604268994871566 0.2146019095607711 0.08238377276414555
      vertex 0.10162810376765288 0.2604865684531734 0.09999724307280676
    endloop
  endfacet
  facet normal -0.8191520442889918 -0.5354797340773546 -0.2055514114026248
    outer loop
      vertex 0.13604268994871566 0.2217692685516771 0.06371216423420151
      vertex 0.10162810376765288 0.2604865684531734 0.09999724307280676
      vertex 0.10162810376765288 0.26765392744407945 0.08132563454286272
    endloop
  endfacet
  facet normal 0.8191520442889918 0.5354797340773546 0.2055514114026248
    outer loop
      vertex 0.14095760221444958 0.22498214695614124 0.06494547270261725
      vertex 0.10654301603338684 0.27086680584854356 0.08255894301127847
      vertex 0.10654301603338684 0.2636994468576375 0.10123055154122251
    endloop
  endfacet
  facet normal 0.8191520442889918 0.5354797340773546 0.2055514114026248
    outer loop
      vertex 0.14095760221444958 0.22498214695614124 0.06494547270261725
      vertex 0.10654301603338684 0.2636994468576375 0.10123055154122251
      vertex 0.14095760221444958 0.21781478796523523 0.08361708123256129
    endloop
  endfacet
  facet normal 0.0 0.35836794954530027 -0.9335804264972017
    outer loop
      vertex 0.14095760221444958 0.22677398670386775 0.06027757057013124
      vertex 0.10654301603338684 0.27265864559627007 0.07789104087879246
      vertex 0.11637284056485472 0.2790844024051983 0.08035765781562396
    endloop
  endfacet
  facet normal 0.0 0.35836794954530027 -0.9335804264972017
    outer loop
      vertex 0.14095760221444958 0.22677398670386775 0.06027757057013124
      vertex 0.11637284056485472 0.2790844024051983 0.08035765781562396
      vertex 0.1507874267459175 0.233199743512796 0.06274418750696274
    endloop
  endfacet
  facet normal 0.0 -0.35836794954530027 0.9335804264972017
    outer loop
      vertex 0.14095760221444958 0.22498214695614124 0.06494547270261725
      vertex 0.1507874267459175 0.23140790376506948 0.06741208963944875
      vertex 0.11637284056485472 0.2772925626574718 0.08502555994810997
    endloop
  endfacet
  facet normal 0.0 -0.35836794954530027 0.9335804264972017
    outer loop
      vertex 0.14095760221444958 0.22498214695614124 0.06494547270261725
      vertex 0.11637284056485472 0.2772925626574718 0.08502555994810997
      vertex 0.10654301603338684 0.27086680584854356 0.08255894301127847
    endloop
  endfacet
  facet normal 0.573576436351046 -0.7647443148733717 -0.29355783847768696
    outer loop
      vertex 0.14095760221444958 0.22677398670386775 0.06027757057013124
      vertex 0.1507874267459175 0.233199743512796 0.06274418750696274
      vertex 0.1507874267459175 0.23140790376506948 0.06741208963944875
    endloop
  endfacet
  facet normal 0.573576436351046 -0.7647443148733717 -0.29355783847768696
    outer loop
      vertex 0.14095760221444958 0.22677398670386775 0.06027757057013124
      vertex 0.1507874267459175 0.23140790376506948 0.06741208963944875
      vertex 0.14095760221444958 0.22498214695614124 0.06494547270261725
    endloop
  endfacet
  facet normal -0.573576436351046 0.7647443148733717 0.29355783847768696
    outer loop
      vertex 0.10654301603338684 0.27265864559627007 0.07789104087879246
      vertex 0.10654301603338684 0.27086680584854356 0.08255894301127847
      vertex 0.11637284056485472 0.2772925626574718 0.08502555994810997
    endloop
  endfacet
  facet normal -0.573576436351046 0.7647443148733717 0.29355783847768696
    outer loop
      vertex 0.10654301603338684 0.27265864559627007 0.07789104087879246
      vertex 0.11637284056485472 0.2772925626574718 0.08502555994810997
      vertex 0.11637284056485472 0.2790844024051983 0.08035765781562396
    endloop
  endfacet
  facet normal 0.0 0.35836794954530027 -0.9335804264972017
    outer loop
      vertex 0.1507874267459175 0.233199743512796 0.06274418750696274
      vertex 0.11637284056485472 0.2790844024051983 0.08035765781562396
      vertex 0.12128775283058868 0.28229728080966243 0.08159096628403971
    endloop
  endfacet
  facet normal 0.0 0.35836794954530027 -0.9335804264972017
    outer loop
      vertex 0.1507874267459175 0.233199743512796 0.06274418750696274
      vertex 0.12128775283058868 0.28229728080966243 0.08159096628403971
      vertex 0.15570233901165142 0.23641262191726012 0.06397749597537848
    endloop
  endfacet
  facet normal 0.0 -0.35836794954530027 0.9335804264972017
    outer loop
      vertex 0.1507874267459175 0.2242405447741635 0.08608369816939279
      vertex 0.15570233901165142 0.2274534231786276 0.08731700663780853
      vertex 0.12128775283058868 0.27333808207102994 0.10493047694646976
    endloop
  endfacet
  facet normal 0.0 -0.35836794954530027 0.9335804264972017
    outer loop
      vertex 0.1507874267459175 0.2242405447741635 0.08608369816939279
      vertex 0.12128775283058868 0.27333808207102994 0.10493047694646976
      vertex 0.11637284056485472 0.2701252036665658 0.103697168478054
    endloop
  endfacet
  facet normal 0.573576436351046 -0.7647443148733717 -0.29355783847768696
    outer loop
      vertex 0.1507874267459175 0.233199743512796 0.06274418750696274
      vertex 0.15570233901165142 0.23641262191726012 0.06397749597537848
      vertex 0.15570233901165142 0.2346207821695336 0.06864539810786449
    endloop
  endfacet
  facet normal 0.573576436351046 -0.7647443148733717 -0.29355783847768696
    outer loop
      vertex 0.1507874267459175 0.233199743512796 0.06274418750696274
      vertex 0.15570233901165142 0.2346207821695336 0.06864539810786449
      vertex 0.1507874267459175 0.23140790376506948 0.06741208963944875
    endloop
  endfacet
  facet normal 0.573576436351046 -0.7647443148733717 -0.29355783847768696
    outer loop
      vertex 0.1507874267459175 0.23140790376506948 0.06741208963944875
      vertex 0.15570233901165142 0.2346207821695336 0.06864539810786449
      vertex 0.15570233901165142 0.2274534231786276 0.08731700663780853
    endloop
  endfacet
  facet normal 0.573576436351046 -0.7647443148733717 -0.29355783847768696
    outer loop
      vertex 0.1507874267459175 0.23140790376506948 0.06741208963944875
      vertex 0.15570233901165142 0.2274534231786276 0.08731700663780853
      vertex 0.1507874267459175 0.2242405447741635 0.08608369816939279
    endloop
  endfacet
  facet normal -0.573576436351046 0.7647443148733717 0.29355783847768696
    outer loop
      vertex 0.11637284056485472 0.2790844024051983 0.08035765781562396
      vertex 0.11637284056485472 0.2772925626574718 0.08502555994810997
      vertex 0.12128775283058868 0.2805054410619359 0.08625886841652572
    endloop
  endfacet
  facet normal -0.573576436351046 0.7647443148733717 0.29355783847768696
    outer loop
      vertex 0.11637284056485472 0.2790844024051983 0.08035765781562396
      vertex 0.12128775283058868 0.2805054410619359 0.08625886841652572
      vertex 0.12128775283058868 0.28229728080966243 0.08159096628403971
    endloop
  endfacet
  facet normal -0.573576436351046 0.7647443148733717 0.29355783847768696
    outer loop
      vertex 0.11637284056485472 0.2772925626574718 0.08502555994810997
      vertex 0.11637284056485472 0.2701252036665658 0.103697168478054
      vertex 0.12128775283058868 0.27333808207102994 0.10493047694646976
    endloop
  endfacet
  facet normal -0.573576436351046 0.7647443148733717 0.29355783847768696
    outer loop
      vertex 0.11637284056485472 0.2772925626574718 0.08502555994810997
      vertex 0.12128775283058868 0.27333808207102994 0.10493047694646976
      vertex 0.12128775283058868 0.2805054410619359 0.08625886841652572
    endloop
  endfacet
  facet normal -0.8191520442889918 -0.5354797340773546 -0.2055514114026248
    outer loop
      vertex 0.1507874267459175 0.23140790376506948 0.06741208963944875
      vertex 0.1507874267459175 0.2242405447741635 0.08608369816939279
      vertex 0.11637284056485472 0.2701252036665658 0.103697168478054
    endloop
  endfacet
  facet normal -0.8191520442889918 -0.5354797340773546 -0.2055514114026248
    outer loop
      vertex 0.1507874267459175 0.23140790376506948 0.06741208963944875
      vertex 0.11637284056485472 0.2701252036665658 0.103697168478054
      vertex 0.11637284056485472 0.2772925626574718 0.08502555994810997
    endloop
  endfacet
  facet normal 0.8191520442889918 0.5354797340773546 0.2055514114026248
    outer loop
      vertex 0.15570233901165142 0.2346207821695336 0.06864539810786449
      vertex 0.12128775283058868 0.2805054410619359 0.08625886841652572
      vertex 0.12128775283058868 0.27333808207102994 0.10493047694646976
    endloop
  endfacet
  facet normal 0.8191520442889918 0.5354797340773546 0.2055514114026248
    outer loop
      vertex 0.15570233901165142 0.2346207821695336 0.06864539810786449
      vertex 0.12128775283058868 0.27333808207102994 0.10493047694646976
      vertex 0.15570233901165142 0.2274534231786276 0.08731700663780853
    endloop
  endfacet
  facet normal 0.0 0.35836794954530027 -0.9335804264972017
    outer loop
      vertex 0.15570233901165142 0.23641262191726012 0.06397749597537848
      vertex 0.12128775283058868 0.28229728080966243 0.08159096628403971
      vertex 0.1311175773620566 0.2887230376185907 0.0840575832208712
    endloop
  endfacet
  facet normal 0.0 0.35836794954530027 -0.9335804264972017
    outer loop
      vertex 0.15570233901165142 0.23641262191726012 0.06397749597537848
      vertex 0.1311175773620566 0.2887230376185907 0.0840575832208712
      vertex 0.16553216354311934 0.24283837872618838 0.06644411291220999
    endloop
  endfacet
  facet normal 0.0 -0.35836794954530027 0.9335804264972017
    outer loop
      vertex 0.15570233901165142 0.2346207821695336 0.06864539810786449
      vertex 0.16553216354311934 0.24104653897846187 0.071112015044696
      vertex 0.1311175773620566 0.2869311978708642 0.08872548535335721
    endloop
  endfacet
  facet normal 0.0 -0.35836794954530027 0.9335804264972017
    outer loop
      vertex 0.15570233901165142 0.2346207821695336 0.06864539810786449
      vertex 0.1311175773620566 0.2869311978708642 0.08872548535335721
      vertex 0.12128775283058868 0.2805054410619359 0.08625886841652572
    endloop
  endfacet
  facet normal 0.573576436351046 -0.7647443148733717 -0.29355783847768696
    outer loop
      vertex 0.15570233901165142 0.23641262191726012 0.06397749597537848
      vertex 0.16553216354311934 0.24283837872618838 0.06644411291220999
      vertex 0.16553216354311934 0.24104653897846187 0.071112015044696
    endloop
  endfacet
  facet normal 0.573576436351046 -0.7647443148733717 -0.29355783847768696
    outer loop
      vertex 0.15570233901165142 0.23641262191726012 0.06397749597537848
      vertex 0.16553216354311934 0.24104653897846187 0.071112015044696
      vertex 0.15570233901165142 0.2346207821695336 0.06864539810786449
    endloop
  endfacet
  facet normal -0.573576436351046 0.7647443148733717 0.29355783847768696
    outer loop
      vertex 0.12128775283058868 0.28229728080966243 0.08159096628403971
      vertex 0.12128775283058868 0.2805054410619359 0.08625886841652572
      vertex 0.1311175773620566 0.2869311978708642 0.08872548535335721
    endloop
  endfacet
  facet normal -0.573576436351046 0.7647443148733717 0.29355783847768696
    outer loop
      vertex 0.12128775283058868 0.28229728080966243 0.08159096628403971
      vertex 0.1311175773620566 0.2869311978708642 0.08872548535335721
      vertex 0.1311175773620566 0.2887230376185907 0.0840575832208712
    endloop
  endfacet
  facet normal -0.8191520442889918 -0.5354797340773546 -0.2055514114026248
    outer loop
      vertex 0.1 0.2 0.05
      vertex 0.1 0.1982081602522735 0.05466790213248601
      vertex 0.06558541381893725 0.24409281914467582 0.07228137244114723
    endloop
  endfacet
  facet normal -0.8191520442889918 -0.5354797340773546 -0.2055514114026248
    outer loop
      vertex 0.1 0.2 0.05
      vertex 0.06558541381893725 0.24409281914467582 0.07228137244114723
      vertex 0.06558541381893725 0.2458846588924023 0.06761347030866122
    endloop
  endfacet
  facet normal 0.8191520442889918 0.5354797340773546 0.2055514114026248
    outer loop
      vertex 0.16553216354311934 0.24283837872618838 0.06644411291220999
      vertex 0.1311175773620566 0.2887230376185907 0.0840575832208712
      vertex 0.1311175773620566 0.2869311978708642 0.08872548535335721
    endloop
  endfacet
  facet normal 0.8191520442889918 0.5354797340773546 0.2055514114026248
    outer loop
      vertex 0.16553216354311934 0.24283837872618838 0.06644411291220999
      vertex 0.1311175773620566 0.2869311978708642 0.08872548535335721
      vertex 0.16553216354311934 0.24104653897846187 0.071112015044696
    endloop
  endfacet
endsolid heatsink
